<svg width="177" height="59" fill="none" xmlns="http://www.w3.org/2000/svg"><path d="M31.74 2.395C31.74 1.183 30.76.2 29.55.2a2.192 2.192 0 00-2.189 2.195v35.948c0 1.212.98 2.194 2.19 2.194s2.19-.982 2.19-2.194V2.395zm45.654 18.482c0-1.211-.98-2.194-2.19-2.194-1.209 0-2.19.983-2.19 2.194v35.928c0 1.212.981 2.195 2.19 2.195 1.21 0 2.19-.983 2.19-2.194V20.877zm-2.19-8.917a4.229 4.229 0 004.225-4.234 4.229 4.229 0 00-4.225-4.234 4.229 4.229 0 00-4.224 4.234 4.229 4.229 0 004.224 4.233zM4.224 55.137a4.229 4.229 0 004.225-4.233 4.229 4.229 0 00-4.225-4.234A4.229 4.229 0 000 50.903a4.229 4.229 0 004.224 4.234zm40.315-36.524c-2.147 0-4.245.638-6.03 1.833a10.872 10.872 0 00-3.998 4.881 10.899 10.899 0 002.353 11.854 10.831 10.831 0 0011.828 2.358 10.858 10.858 0 004.871-4.006 10.894 10.894 0 00-1.35-13.734 10.841 10.841 0 00-7.674-3.186zm0 17.29a6.39 6.39 0 01-3.556-1.081 6.41 6.41 0 01-2.357-2.879 6.427 6.427 0 011.39-6.99 6.395 6.395 0 016.975-1.386 6.402 6.402 0 012.87 2.364 6.423 6.423 0 01-.8 8.094 6.392 6.392 0 01-4.522 1.873v.005zm-32.276.095a2.198 2.198 0 01-1.358 2.054 2.185 2.185 0 01-2.406-.506l-.045.046a10.874 10.874 0 01-3.18-7.691 10.893 10.893 0 013.18-7.69 2.191 2.191 0 013.02.078 2.201 2.201 0 01.08 3.027l.034.036a6.42 6.42 0 000 9.068 2.168 2.168 0 01.675 1.578zm11.234 2.17a2.23 2.23 0 01-.65 1.573 2.217 2.217 0 01-2.27.536 10.923 10.923 0 01-4.13-2.813 10.954 10.954 0 01-2.449-4.362c-.095-.33-.174-.664-.235-1.002-.035-.175-.06-.345-.085-.5a5.684 5.684 0 01-.055-.502c-.01-.155 0-.35-.03-.5-.03-.151 0-.331 0-.502a.166.166 0 010-.07v-.516c0-.155 0-.316.045-.471a.429.429 0 010-.08c0-.165.045-.336.07-.501.025-.165.05-.29.08-.436l.03-.13.09-.386c0-.045.025-.09.04-.14.045-.18.1-.356.16-.536 0-.086.06-.17.09-.256l.085-.246a10.896 10.896 0 012.215-3.612 10.71 10.71 0 013.34-2.435l.164-.08a2.187 2.187 0 013.026 1.543 2.199 2.199 0 01-1.236 2.465l.03.07a6.378 6.378 0 00-3.325 3.563 6.527 6.527 0 00-.38 1.573v.31c-.012.21-.012.421 0 .632v.31c0 .106 0 .21.035.316.025.202.062.403.11.601 0 .105.05.21.08.316.046.17.1.337.165.5.04.121.09.246.145.372a6.366 6.366 0 003.565 3.367 2.226 2.226 0 011.28 2.029zm31.045 7.926a10.818 10.818 0 01-5.704 6.047c-.476.215-.968.396-1.47.541a9.932 9.932 0 01-1 .236c-.175.035-.345.06-.5.085a8.523 8.523 0 01-.5.06c-.154.015-.35 0-.524 0h-.5a.109.109 0 01-.07 0h-.515c-.155 0-.315 0-.47-.045a.207.207 0 01-.08 0c-.165 0-.335-.04-.5-.07l-.435-.08a1.236 1.236 0 01-.13-.03c-.13-.03-.26-.056-.385-.09l-.14-.036c-.18-.05-.36-.105-.535-.165l-.255-.085-.245-.09a10.835 10.835 0 01-6.089-5.677 2.228 2.228 0 011.562-3.064 2.216 2.216 0 012.492 1.25 6.382 6.382 0 005.125 3.748h.31c.21.015.42.015.63 0 .103.007.206.007.31 0 .1 0 .21 0 .315-.035.202-.025.402-.062.6-.11.105 0 .21-.05.315-.08.17-.046.336-.101.5-.166.12-.04.244-.09.37-.145a6.358 6.358 0 003.359-3.567 2.218 2.218 0 014.104-.135 2.23 2.23 0 01.055 1.703zM70.8 38.268a2.177 2.177 0 01-.618 1.515c-.395.405-.932.64-1.497.654h-4.444a6.492 6.492 0 01-4.596-1.907 6.52 6.52 0 01-1.903-4.606V2.4c0-.578.227-1.133.632-1.545A2.192 2.192 0 0159.906.2a2.192 2.192 0 011.55.646c.41.413.64.971.64 1.554v31.499c.008.1.008.2 0 .3a2.18 2.18 0 002.145 1.874h4.444a2.163 2.163 0 012.115 2.195zm26.271-17.385a2.177 2.177 0 01-.639 1.53 2.167 2.167 0 01-1.53.634h-6.624a2.156 2.156 0 00-1.98 1.36 2.169 2.169 0 001.201 2.814c.263.105.545.158.829.155a6.517 6.517 0 014.627 1.881 6.546 6.546 0 01.067 9.247 6.517 6.517 0 01-4.6 1.948v.055h-6.624v-.06a2.165 2.165 0 01-1.532-.636 2.174 2.174 0 011.532-3.708h6.53c.58 0 1.137-.23 1.548-.642a2.197 2.197 0 00-1.549-3.746c-1.72 0-3.37-.68-4.593-1.894a6.55 6.55 0 01-1.936-4.585v-.065a6.55 6.55 0 011.925-4.574 6.522 6.522 0 014.575-1.904h6.624a2.175 2.175 0 012.149 2.19zm48.188 35.722c0 1.212.981 2.195 2.19 2.195s2.19-.983 2.19-2.195V20.657a2.193 2.193 0 00-2.19-2.195c-1.209 0-2.19.983-2.19 2.195v35.948zM99.606 38.123c0 1.212.98 2.194 2.19 2.194a2.192 2.192 0 002.189-2.194V2.194c0-1.211-.98-2.194-2.189-2.194-1.21 0-2.19.983-2.19 2.194v35.929zm2.19 17.385a4.229 4.229 0 004.224-4.234 4.229 4.229 0 00-4.224-4.233 4.23 4.23 0 00-4.225 4.233 4.23 4.23 0 004.225 4.234zm70.975-43.178a4.229 4.229 0 004.224-4.234 4.229 4.229 0 00-4.224-4.233 4.23 4.23 0 00-4.225 4.233 4.23 4.23 0 004.225 4.234zm-40.29 28.057a10.84 10.84 0 006.025-1.843 10.895 10.895 0 001.623-16.733 10.832 10.832 0 00-11.826-2.349 10.853 10.853 0 00-4.867 4.007 10.892 10.892 0 001.358 13.74 10.853 10.853 0 007.687 3.178zm0-17.29c1.266 0 2.504.376 3.556 1.081a6.412 6.412 0 012.72 6.585 6.412 6.412 0 01-5.03 5.037 6.387 6.387 0 01-6.569-2.73 6.427 6.427 0 01.799-8.098 6.384 6.384 0 014.524-1.875zm30.916 5.877a.166.166 0 010 .07v.516l-.045.471v.08c0 .166-.045.336-.075.501-.03.166-.045.29-.08.436.002.044.002.087 0 .13l-.09.386c0 .045 0 .09-.04.14a8.08 8.08 0 01-.16.537l-.09.255-.085.24a10.822 10.822 0 01-5.529 5.973c-.32.175-.68.267-1.045.265a2.185 2.185 0 01-2.146-1.728 2.196 2.196 0 011.236-2.465l-.03-.07a6.39 6.39 0 003.745-5.136v-.31a5.54 5.54 0 000-.632v-.31c0-.106 0-.216-.035-.316a5.32 5.32 0 00-.11-.601c0-.105-.05-.21-.08-.316a4.86 4.86 0 00-.165-.5 6.374 6.374 0 00-3.71-3.738 2.223 2.223 0 011.58-4.154 10.88 10.88 0 016.534 7.2 12.038 12.038 0 01.325 1.502c.025.156.04.346.055.502.015.155 0 .35.03.526.03.175.015.386.01.546zM142.66 13.197a2.22 2.22 0 01-3.208 1.985 2.23 2.23 0 01-1.027-1.058 6.353 6.353 0 00-3.559-3.367 6.214 6.214 0 00-1.565-.38 2.22 2.22 0 00-.315-.026 4.346 4.346 0 00-.625 0h-.31l-.315.035a5.1 5.1 0 00-.6.115c-.104 0-.209.05-.314.08-.17.046-.337.101-.5.166a3.34 3.34 0 00-.37.145 6.39 6.39 0 00-3.365 3.567 2.214 2.214 0 01-1.114 1.476 2.219 2.219 0 01-3.265-2.138c.026-.318.119-.627.275-.906a10.941 10.941 0 018.174-6.829l.499-.08c.17 0 .345-.045.5-.06l.5-.03h.5a.165.165 0 01.07 0h.515l.47.04h.08c.165 0 .335.04.5.07l.435.08c.044.008.087.018.13.03.13.025.255.056.385.09l.135.036.54.165.255.085.24.09a10.793 10.793 0 016.069 5.727c.122.281.183.585.18.892zm-23.377 11.904v31.514a2.19 2.19 0 11-4.379 0V25.101c-.01-.1-.01-.2 0-.3a2.183 2.183 0 00-2.17-1.894h-4.444a2.17 2.17 0 01-2.066-2.172 2.17 2.17 0 012.066-2.172h4.444a6.484 6.484 0 014.637 1.899 6.512 6.512 0 011.912 4.64zm49.248 11.689a2.192 2.192 0 01-3.714-1.583 2.18 2.18 0 01.615-1.504l-.035-.035a6.423 6.423 0 000-9.068 2.2 2.2 0 01-.477-2.391 2.201 2.201 0 011.184-1.19 2.191 2.191 0 012.387.475l.045-.045a10.882 10.882 0 013.158 7.671 10.883 10.883 0 01-3.163 7.67z" fill="#fe3e57"/></svg>