<svg width="177" height="59" viewBox="0 0 177 59" fill="none"
   xmlns="http://www.w3.org/2000/svg">
   <path d="M31.7405 2.39484C31.7405 1.18287 30.7602 0.200378 29.5508 0.200378C28.3415 0.200378 27.3611 1.18287 27.3611 2.39484V38.343C27.3611 39.5549 28.3415 40.5374 29.5508 40.5374C30.7602 40.5374 31.7405 39.5549 31.7405 38.343V2.39484Z" fill="#fe3e57"/>
   <path d="M77.3941 20.8774C77.3941 19.6655 76.4137 18.683 75.2044 18.683C73.9951 18.683 73.0147 19.6655 73.0147 20.8774V56.8055C73.0147 58.0175 73.9951 59 75.2044 59C76.4137 59 77.3941 58.0175 77.3941 56.8055V20.8774Z" fill="#fe3e57"/>
   <path d="M75.2044 11.9593C77.5375 11.9593 79.4288 10.0639 79.4288 7.72571C79.4288 5.38755 77.5375 3.4921 75.2044 3.4921C72.8713 3.4921 70.98 5.38755 70.98 7.72571C70.98 10.0639 72.8713 11.9593 75.2044 11.9593Z" fill="#fe3e57"/>
   <path d="M4.2244 55.1371C6.55748 55.1371 8.44881 53.2417 8.44881 50.9035C8.44881 48.5654 6.55748 46.6699 4.2244 46.6699C1.89133 46.6699 0 48.5654 0 50.9035C0 53.2417 1.89133 55.1371 4.2244 55.1371Z" fill="#fe3e57"/>
   <path d="M44.5387 18.6129C42.3921 18.6129 40.2937 19.2508 38.5089 20.446C36.724 21.6412 35.3329 23.3399 34.5114 25.3275C33.6899 27.315 33.475 29.502 33.8938 31.612C34.3126 33.722 35.3463 35.6601 36.8642 37.1813C38.382 38.7025 40.3159 39.7384 42.4213 40.1581C44.5267 40.5778 46.7089 40.3624 48.6922 39.5391C50.6754 38.7159 52.3704 37.3217 53.563 35.533C54.7556 33.7443 55.3922 31.6413 55.3922 29.49C55.3922 26.6052 54.2487 23.8385 52.2133 21.7987C50.1779 19.7588 47.4172 18.6129 44.5387 18.6129ZM44.5387 35.903C43.2729 35.903 42.0355 35.5268 40.983 34.8219C39.9306 34.117 39.1104 33.1151 38.6262 31.943C38.1421 30.7709 38.0156 29.4812 38.2629 28.237C38.5103 26.9929 39.1202 25.8502 40.0156 24.9535C40.9111 24.0568 42.0517 23.4464 43.2934 23.1995C44.535 22.9527 45.8218 23.0804 46.991 23.5665C48.1602 24.0527 49.1593 24.8754 49.8618 25.9307C50.5643 26.986 50.9388 28.2264 50.9378 29.495C50.9371 30.3365 50.7711 31.1696 50.4492 31.9469C50.1272 32.7241 49.6557 33.4301 49.0615 34.0247C48.4673 34.6193 47.762 35.0907 46.986 35.4121C46.21 35.7336 45.3784 35.8987 44.5387 35.898V35.903Z" fill="#fe3e57"/>
   <path d="M12.2632 35.9982C12.2679 36.4374 12.141 36.868 11.8988 37.2341C11.6567 37.6003 11.3105 37.8851 10.905 38.0519C10.4995 38.2187 10.0534 38.2596 9.62439 38.1695C9.19541 38.0794 8.80329 37.8623 8.49877 37.5464L8.45377 37.5915C7.44553 36.5818 6.64571 35.3829 6.10001 34.0633C5.55431 32.7437 5.27344 31.3292 5.27344 29.9008C5.27344 28.4724 5.55431 27.0579 6.10001 25.7383C6.64571 24.4187 7.44553 23.2198 8.45377 22.2102C8.87152 21.8329 9.41782 21.6308 9.97994 21.6455C10.5421 21.6601 11.0771 21.8904 11.4747 22.2889C11.8724 22.6874 12.1022 23.2236 12.1168 23.787C12.1314 24.3503 11.9297 24.8978 11.5533 25.3165L11.5883 25.3516C10.3886 26.5542 9.71456 28.1852 9.71456 29.8858C9.71456 31.5864 10.3886 33.2174 11.5883 34.42C11.8021 34.6232 11.9722 34.868 12.0882 35.1393C12.2043 35.4107 12.2638 35.703 12.2632 35.9982Z" fill="#fe3e57"/>
   <path d="M23.4967 38.1676C23.4967 38.7576 23.2628 39.3234 22.8466 39.7406C22.4303 40.1578 21.8657 40.3921 21.277 40.3921C21.039 40.3926 20.8025 40.3536 20.5771 40.2769C19.0022 39.6713 17.5886 38.7084 16.4471 37.4636C15.3057 36.2189 14.4674 34.7261 13.998 33.1023C13.9026 32.7726 13.8242 32.4381 13.7631 32.1003C13.7281 31.9249 13.7031 31.7546 13.6781 31.5993C13.6531 31.4439 13.6331 31.2536 13.6231 31.0982C13.6131 30.9429 13.6231 30.7475 13.5931 30.5972C13.5631 30.4469 13.5931 30.2665 13.5931 30.0962C13.5881 30.0731 13.5881 30.0492 13.5931 30.0261C13.5931 29.8758 13.5931 29.7254 13.5931 29.5701C13.5931 29.5701 13.5931 29.53 13.5931 29.51C13.5931 29.3547 13.5931 29.1944 13.6381 29.039C13.6356 29.0124 13.6356 28.9855 13.6381 28.9589C13.6381 28.7935 13.6831 28.6232 13.7081 28.4579C13.7331 28.2925 13.7581 28.1673 13.7881 28.022L13.8181 27.8917L13.9081 27.5059C13.9081 27.4608 13.9331 27.4157 13.9481 27.3656C13.993 27.1853 14.048 27.0099 14.108 26.8296C14.108 26.7444 14.168 26.6592 14.198 26.574C14.228 26.4889 14.253 26.4137 14.283 26.3285C14.778 24.9907 15.5305 23.7633 16.4977 22.7162C17.4427 21.6951 18.5769 20.868 19.8372 20.2812L20.0022 20.2011C20.2794 20.0784 20.5791 20.0152 20.8821 20.0157C21.3831 20.0142 21.8696 20.1849 22.2602 20.4994C22.6508 20.8139 22.922 21.2532 23.0284 21.7439C23.1349 22.2346 23.0702 22.747 22.8452 23.1957C22.6202 23.6443 22.2484 24.0021 21.7919 24.2092L21.8219 24.2794C20.2869 24.9789 19.0914 26.26 18.4974 27.8416C18.306 28.3481 18.1784 28.8766 18.1175 29.4148C18.1175 29.52 18.1175 29.6202 18.1175 29.7254C18.105 29.9357 18.105 30.1465 18.1175 30.3567C18.1175 30.4569 18.1175 30.5621 18.1175 30.6674C18.1175 30.7726 18.1175 30.8778 18.1525 30.983C18.177 31.1854 18.2137 31.3862 18.2624 31.5842C18.2624 31.6894 18.3124 31.7947 18.3424 31.8999C18.3877 32.0699 18.4428 32.2372 18.5074 32.4009C18.5474 32.5211 18.5974 32.6464 18.6524 32.7716C18.9947 33.5413 19.486 34.2352 20.0979 34.8131C20.7098 35.3911 21.43 35.8415 22.2169 36.1385C22.6011 36.3191 22.9258 36.6062 23.1525 36.9657C23.3793 37.3252 23.4987 37.7423 23.4967 38.1676Z" fill="#fe3e57"/>
   <path d="M54.5423 46.0937C54.0357 47.4285 53.271 48.6499 52.2922 49.6877C51.3133 50.7255 50.1394 51.5592 48.8381 52.141C48.3616 52.3562 47.8704 52.537 47.3683 52.6821C47.0393 52.7778 46.7055 52.8564 46.3684 52.9176C46.1935 52.9527 46.0235 52.9777 45.8685 53.0028C45.7135 53.0278 45.5235 53.0479 45.3686 53.0629C45.2136 53.0779 45.0186 53.0629 44.8436 53.0629C44.6687 53.0629 44.5137 53.0629 44.3437 53.0629C44.321 53.0706 44.2964 53.0706 44.2737 53.0629C44.1237 53.0629 43.9738 53.0629 43.8188 53.0629H43.7588C43.6038 53.0629 43.4438 53.0629 43.2889 53.0178C43.2624 53.023 43.2353 53.023 43.2089 53.0178C43.0439 53.0178 42.8739 52.9777 42.7089 52.9477L42.274 52.8675C42.2302 52.8599 42.1868 52.8498 42.144 52.8375C42.014 52.8074 41.8841 52.7823 41.7591 52.7473L41.6191 52.7122C41.4391 52.6621 41.2592 52.607 41.0842 52.5469L40.8292 52.4617L40.5842 52.3715C39.2464 51.8737 38.0197 51.1159 36.9748 50.1418C35.9299 49.1677 35.0872 47.9963 34.4951 46.695C34.3721 46.4156 34.3091 46.1135 34.3101 45.8082C34.3092 45.2998 34.482 44.8065 34.7998 44.4103C35.1175 44.0141 35.5611 43.739 36.0567 43.6306C36.5523 43.5223 37.0699 43.5873 37.5235 43.8148C37.977 44.0424 38.3391 44.4187 38.5495 44.8813C38.8914 45.6495 39.3814 46.3425 39.9915 46.9203C40.6015 47.4981 41.3194 47.9493 42.104 48.2481C42.6095 48.44 43.1368 48.5679 43.6738 48.6289C43.7788 48.6289 43.8788 48.6289 43.9838 48.6289C44.1935 48.6439 44.404 48.6439 44.6137 48.6289C44.7169 48.6362 44.8204 48.6362 44.9236 48.6289C45.0236 48.6289 45.1336 48.6289 45.2386 48.5938C45.4406 48.5692 45.6409 48.5324 45.8385 48.4836C45.9435 48.4836 46.0485 48.4335 46.1535 48.4034C46.3232 48.3581 46.4901 48.3028 46.6534 48.2381C46.7734 48.198 46.8984 48.1479 47.0233 48.0928C47.7907 47.7501 48.4827 47.2584 49.0593 46.6461C49.6359 46.0338 50.0858 45.3131 50.3829 44.5256C50.5904 43.9728 51.0085 43.5252 51.5452 43.2814C52.082 43.0376 52.6934 43.0175 53.245 43.2254C53.7965 43.4334 54.2431 43.8524 54.4864 44.3903C54.7297 44.9282 54.7498 45.541 54.5423 46.0937Z" fill="#fe3e57"/>
   <path d="M70.8 38.2678C70.7989 38.8342 70.5773 39.3778 70.1823 39.783C69.7874 40.1881 69.2503 40.4229 68.6853 40.4372H64.2409C62.5172 40.4372 60.8642 39.751 59.6454 38.5295C58.4265 37.3081 57.7418 35.6514 57.7418 33.924V2.39985C57.7418 1.82169 57.9689 1.26675 58.374 0.855122C58.7791 0.443494 59.3297 0.20828 59.9065 0.200378C60.4877 0.201705 61.0447 0.43402 61.4552 0.846358C61.8657 1.2587 62.0962 1.81738 62.0962 2.39985V33.8989C62.1037 33.999 62.1037 34.0995 62.0962 34.1995C62.1695 34.718 62.4265 35.1926 62.8203 35.5367C63.2142 35.8808 63.7184 36.0713 64.2409 36.0733H68.6853C69.2555 36.0852 69.7978 36.3226 70.194 36.7337C70.5902 37.1448 70.808 37.6963 70.8 38.2678Z" fill="#fe3e57"/>
   <path d="M97.0713 20.8825C97.0686 21.4574 96.8389 22.0079 96.4322 22.4136C96.0256 22.8192 95.4753 23.0469 94.9016 23.0469H88.2775C87.9939 23.0502 87.7137 23.1094 87.4529 23.2212C87.1922 23.333 86.9559 23.4952 86.7577 23.6985C86.5595 23.9018 86.4031 24.1423 86.2976 24.4061C86.1921 24.67 86.1395 24.9521 86.1428 25.2363C86.1461 25.5206 86.2052 25.8014 86.3168 26.0627C86.4283 26.324 86.5902 26.5608 86.793 26.7595C86.9959 26.9581 87.2358 27.1148 87.4991 27.2205C87.7624 27.3262 88.0439 27.379 88.3275 27.3757C90.0578 27.3631 91.7222 28.0398 92.9546 29.257C94.187 30.4743 94.8865 32.1323 94.8991 33.8664C94.9117 35.6004 94.2364 37.2685 93.0218 38.5036C91.8072 39.7387 90.1528 40.4397 88.4225 40.4523V40.5074H81.7984V40.4473C81.2236 40.4473 80.6724 40.2184 80.266 39.8111C79.8596 39.4038 79.6312 38.8514 79.6312 38.2753C79.6312 37.6993 79.8596 37.1469 80.266 36.7396C80.6724 36.3323 81.2236 36.1034 81.7984 36.1034H82.0184H88.3275C88.9082 36.1034 89.4652 35.8722 89.8758 35.4607C90.2865 35.0491 90.5172 34.491 90.5172 33.909C90.5172 33.327 90.2865 32.7688 89.8758 32.3572C89.4652 31.9457 88.9082 31.7145 88.3275 31.7145C86.6071 31.7146 84.9562 31.0342 83.7336 29.8211C82.511 28.608 81.8155 26.9604 81.7984 25.2363V25.1712C81.8155 23.4523 82.5068 21.8092 83.7229 20.597C84.939 19.3848 86.5823 18.7008 88.2975 18.693H94.9216C95.4957 18.6996 96.044 18.9335 96.4467 19.3437C96.8494 19.7539 97.0739 20.307 97.0713 20.8825Z" fill="#fe3e57"/>
   <path d="M145.259 56.6051C145.259 57.8171 146.24 58.7996 147.449 58.7996C148.658 58.7996 149.639 57.8171 149.639 56.6051V20.657C149.639 19.445 148.658 18.4625 147.449 18.4625C146.24 18.4625 145.259 19.445 145.259 20.657V56.6051Z" fill="#fe3e57"/>
   <path d="M99.6059 38.1226C99.6059 39.3345 100.586 40.317 101.796 40.317C103.005 40.317 103.985 39.3345 103.985 38.1226V2.19448C103.985 0.982513 103.005 1.52588e-05 101.796 1.52588e-05C100.586 1.52588e-05 99.6059 0.982513 99.6059 2.19448V38.1226Z" fill="#fe3e57"/>
   <path d="M101.796 55.5079C104.129 55.5079 106.02 53.6124 106.02 51.2743C106.02 48.9361 104.129 47.0407 101.796 47.0407C99.4626 47.0407 97.5712 48.9361 97.5712 51.2743C97.5712 53.6124 99.4626 55.5079 101.796 55.5079Z" fill="#fe3e57"/>
   <path d="M172.771 12.3301C175.104 12.3301 176.995 10.4346 176.995 8.09646C176.995 5.75831 175.104 3.86285 172.771 3.86285C170.438 3.86285 168.546 5.75831 168.546 8.09646C168.546 10.4346 170.438 12.3301 172.771 12.3301Z" fill="#fe3e57"/>
   <path d="M132.481 40.3871C134.627 40.3832 136.723 39.7419 138.506 38.5443C140.288 37.3467 141.676 35.6465 142.494 33.6586C143.313 31.6708 143.525 29.4844 143.104 27.3757C142.683 25.2671 141.647 23.3309 140.129 21.8117C138.61 20.2925 136.676 19.2585 134.571 18.8404C132.467 18.4224 130.285 18.6389 128.303 19.4628C126.321 20.2866 124.627 21.6808 123.436 23.4691C122.244 25.2574 121.608 27.3596 121.608 29.51C121.608 30.9401 121.889 32.3562 122.436 33.6771C122.983 34.9981 123.784 36.1981 124.794 37.2084C125.804 38.2187 127.003 39.0195 128.322 39.5649C129.641 40.1104 131.054 40.3898 132.481 40.3871ZM132.481 23.097C133.747 23.097 134.985 23.4732 136.037 24.1781C137.089 24.883 137.91 25.8849 138.394 27.057C138.878 28.2291 139.004 29.5188 138.757 30.763C138.51 32.0071 137.9 33.1498 137.004 34.0465C136.109 34.9432 134.968 35.5536 133.727 35.8004C132.485 36.0473 131.198 35.9196 130.029 35.4335C128.86 34.9473 127.861 34.1245 127.158 33.0693C126.456 32.014 126.081 30.7736 126.082 29.505C126.082 28.6631 126.248 27.8294 126.569 27.0516C126.891 26.2738 127.362 25.5672 127.957 24.9721C128.551 24.377 129.256 23.9051 130.033 23.5833C130.809 23.2616 131.641 23.0963 132.481 23.097Z" fill="#fe3e57"/>
   <path d="M163.397 28.9739C163.402 28.997 163.402 29.021 163.397 29.0441C163.397 29.1944 163.397 29.3447 163.397 29.5V29.5601L163.352 30.0311C163.352 30.0311 163.352 30.0812 163.352 30.1112C163.352 30.2766 163.307 30.4469 163.277 30.6123C163.247 30.7776 163.232 30.9029 163.197 31.0482C163.199 31.0915 163.199 31.135 163.197 31.1784L163.107 31.5642C163.107 31.6093 163.107 31.6544 163.067 31.7045C163.022 31.8798 162.967 32.0602 162.907 32.2406L162.817 32.4961L162.732 32.7366C161.735 35.3725 159.751 37.5149 157.203 38.7087C156.883 38.8843 156.523 38.9757 156.158 38.9743C155.657 38.9758 155.17 38.8051 154.78 38.4905C154.389 38.176 154.118 37.7368 154.012 37.2461C153.905 36.7554 153.97 36.243 154.195 35.7943C154.42 35.3456 154.792 34.9879 155.248 34.7807L155.218 34.7106C155.985 34.368 156.677 33.877 157.255 33.2657C157.832 32.6544 158.283 31.9349 158.583 31.1484C158.774 30.6418 158.902 30.1133 158.963 29.5752C158.963 29.4699 158.963 29.3647 158.963 29.2645C158.975 29.0543 158.975 28.8435 158.963 28.6332C158.963 28.533 158.963 28.4278 158.963 28.3226C158.963 28.2174 158.963 28.1072 158.928 28.007C158.903 27.8045 158.866 27.6037 158.818 27.4057C158.818 27.3005 158.768 27.1953 158.738 27.0901C158.692 26.92 158.637 26.7528 158.573 26.5891C158.528 26.4638 158.478 26.3436 158.423 26.2183C158.081 25.4493 157.59 24.7558 156.979 24.1779C156.368 23.6001 155.649 23.1492 154.863 22.8515C154.393 22.6493 154.007 22.2906 153.771 21.8362C153.534 21.3817 153.461 20.8593 153.565 20.3573C153.668 19.8553 153.942 19.4045 154.339 19.0812C154.735 18.7578 155.232 18.5818 155.743 18.5828C155.981 18.5824 156.218 18.6213 156.443 18.698C158.015 19.3072 159.424 20.275 160.558 21.5246C161.692 22.7743 162.521 24.2715 162.977 25.8977C163.072 26.2283 163.152 26.569 163.217 26.8997C163.247 27.0701 163.277 27.2454 163.302 27.4007C163.327 27.556 163.342 27.7464 163.357 27.9018C163.372 28.0571 163.357 28.2525 163.387 28.4278C163.417 28.6032 163.402 28.8136 163.397 28.9739Z" fill="#fe3e57"/>
   <path d="M142.66 13.1968C142.658 13.7032 142.484 14.1939 142.167 14.5878C141.85 14.9817 141.407 15.2553 140.914 15.3634C140.42 15.4714 139.905 15.4075 139.452 15.1821C139 14.9567 138.638 14.5833 138.425 14.1237C138.084 13.3543 137.594 12.6604 136.983 12.0824C136.372 11.5045 135.652 11.0539 134.866 10.7569C134.363 10.5626 133.837 10.4346 133.301 10.3761C133.197 10.3603 133.092 10.3519 132.986 10.351C132.778 10.336 132.569 10.336 132.361 10.351H132.051L131.736 10.3861C131.534 10.4124 131.334 10.4509 131.136 10.5013C131.032 10.5013 130.927 10.5515 130.822 10.5815C130.652 10.6269 130.485 10.6821 130.322 10.7468C130.196 10.7879 130.072 10.8364 129.952 10.8921C129.184 11.2355 128.492 11.7274 127.914 12.3395C127.337 12.9517 126.886 13.6721 126.587 14.4594C126.518 14.7711 126.383 15.0643 126.19 15.3189C125.998 15.5735 125.753 15.7837 125.473 15.935C125.192 16.0864 124.882 16.1755 124.564 16.1961C124.246 16.2168 123.927 16.1686 123.63 16.0549C123.332 15.9411 123.062 15.7644 122.839 15.5369C122.615 15.3093 122.443 15.0361 122.334 14.736C122.225 14.4358 122.182 14.1157 122.208 13.7974C122.234 13.4791 122.327 13.17 122.483 12.8912C123.089 11.3123 124.053 9.89576 125.298 8.75267C126.542 7.60958 128.034 6.77104 129.657 6.30281C129.987 6.20762 130.327 6.12746 130.657 6.06232L131.156 5.98216C131.326 5.98216 131.501 5.93707 131.656 5.92204L132.156 5.89198C132.321 5.89198 132.481 5.89198 132.656 5.89198C132.679 5.88696 132.703 5.88696 132.726 5.89198H133.181H133.241L133.711 5.93206H133.791C133.956 5.93206 134.126 5.97214 134.291 6.0022L134.726 6.08236C134.77 6.09001 134.813 6.10005 134.856 6.11242C134.986 6.13748 135.111 6.16754 135.241 6.20261L135.376 6.23768L135.916 6.40302L136.171 6.48819L136.411 6.57837C137.751 7.08227 138.977 7.84803 140.019 8.83113C141.061 9.81423 141.897 10.9951 142.48 12.305C142.602 12.5863 142.663 12.8902 142.66 13.1968Z" fill="#fe3e57"/>
   <path d="M119.283 25.1011V56.6152C119.283 57.1972 119.052 57.7553 118.642 58.1669C118.231 58.5784 117.674 58.8096 117.093 58.8096C116.513 58.8096 115.956 58.5784 115.545 58.1669C115.134 57.7553 114.904 57.1972 114.904 56.6152V25.1011C114.894 25.0011 114.894 24.9004 114.904 24.8004C114.832 24.275 114.573 23.7933 114.174 23.445C113.775 23.0967 113.263 22.9054 112.734 22.9066H108.29C107.733 22.8798 107.208 22.6393 106.823 22.2349C106.439 21.8305 106.224 21.2933 106.224 20.7347C106.224 20.176 106.439 19.6388 106.823 19.2345C107.208 18.8301 107.733 18.5896 108.29 18.5628H112.734C113.594 18.5561 114.446 18.7205 115.242 19.0464C116.038 19.3724 116.762 19.8533 117.371 20.4615C117.98 21.0696 118.463 21.7928 118.791 22.5892C119.119 23.3856 119.287 24.2394 119.283 25.1011Z" fill="#fe3e57"/>
   <path d="M168.531 36.7898C168.221 37.0882 167.83 37.2887 167.407 37.3664C166.984 37.4442 166.548 37.3957 166.152 37.2271C165.757 37.0584 165.419 36.7771 165.182 36.4179C164.944 36.0587 164.817 35.6375 164.817 35.2066C164.821 34.6449 165.041 34.1064 165.432 33.7035L165.397 33.6685C166.596 32.4658 167.27 30.8349 167.27 29.1343C167.27 27.4336 166.596 25.8027 165.397 24.6C165.193 24.3964 165.032 24.1546 164.921 23.8884C164.811 23.6222 164.754 23.3369 164.754 23.0486C164.754 22.7604 164.81 22.475 164.92 22.2086C165.03 21.9423 165.191 21.7002 165.394 21.4962C165.597 21.2923 165.839 21.1304 166.104 21.0199C166.37 20.9094 166.655 20.8524 166.942 20.8521C167.23 20.8519 167.515 20.9084 167.78 21.0185C168.046 21.1286 168.288 21.2901 168.491 21.4937L168.536 21.4486C170.56 23.4868 171.695 26.2452 171.694 29.1203C171.693 31.9953 170.556 34.753 168.531 36.7898Z" fill="#fe3e57"/>
</svg>
