<svg xmlns="http://www.w3.org/2000/svg">
   <symbol id="list" viewBox="0 0 22 17">
      <g>
         <path fill="currentColor" d="M1.0068359,1.0003052 C1.0068359,1.0003052 5.4294434,1.0003052 5.4294434,1.0003052 C5.4294434,1.0003052 5.4294434,5.172058 5.4294434,5.172058 C5.4294434,5.172058 1.0068359,5.172058 1.0068359,5.172058 C1.0068359,5.172058 1.0068359,1.0003052 1.0068359,1.0003052 ZM6.835022,1.0003052 C6.835022,1.0003052 20.993835,1.0003052 20.993835,1.0003052 C20.993835,1.0003052 20.993835,5.172058 20.993835,5.172058 C20.993835,5.172058 6.835022,5.172058 6.835022,5.172058 C6.835022,5.172058 6.835022,1.0003052 6.835022,1.0003052 ZM1.0068359,6.413513 C1.0068359,6.413513 5.4294434,6.413513 5.4294434,6.413513 C5.4294434,6.413513 5.4294434,10.585266 5.4294434,10.585266 C5.4294434,10.585266 1.0068359,10.585266 1.0068359,10.585266 C1.0068359,10.585266 1.0068359,6.413513 1.0068359,6.413513 ZM6.835022,6.413513 C6.835022,6.413513 20.993835,6.413513 20.993835,6.413513 C20.993835,6.413513 20.993835,10.585266 20.993835,10.585266 C20.993835,10.585266 6.835022,10.585266 6.835022,10.585266 C6.835022,10.585266 6.835022,6.413513 6.835022,6.413513 ZM1.0068359,11.82666 C1.0068359,11.82666 5.4294434,11.82666 5.4294434,11.82666 C5.4294434,11.82666 5.4294434,15.998413 5.4294434,15.998413 C5.4294434,15.998413 1.0068359,15.998413 1.0068359,15.998413 C1.0068359,15.998413 1.0068359,11.82666 1.0068359,11.82666 ZM6.835022,11.82666 C6.835022,11.82666 20.993835,11.82666 20.993835,11.82666 C20.993835,11.82666 20.993835,15.998413 20.993835,15.998413 C20.993835,15.998413 6.835022,15.998413 6.835022,15.998413 C6.835022,15.998413 6.835022,11.82666 6.835022,11.82666 Z"/>

      </g>
   </symbol>
</svg>